<mxfile host="app.diagrams.net" modified="2024-05-31T05:57:23.071Z" agent="Mozilla/5.0 (Windows NT 10.0; Win64; x64) AppleWebKit/537.36 (KHTML, like Gecko) Chrome/125.0.0.0 Safari/537.36" etag="3kD4MRj-wKxgkNB-qcgR" version="24.4.10" type="github">
  <diagram name="Page-1" id="1UnA9PyhfTO9W-iHJSsG">
    <mxGraphModel dx="880" dy="434" grid="1" gridSize="10" guides="1" tooltips="1" connect="1" arrows="1" fold="1" page="1" pageScale="1" pageWidth="1169" pageHeight="1654" math="0" shadow="0">
      <root>
        <mxCell id="0" />
        <mxCell id="1" parent="0" />
        <mxCell id="oMtxJ8uxIb694PyAZF1U-1" value="" style="swimlane;startSize=0;" vertex="1" parent="1">
          <mxGeometry x="160" y="110" width="190" height="140" as="geometry" />
        </mxCell>
        <mxCell id="oMtxJ8uxIb694PyAZF1U-2" value="Browser" style="text;html=1;align=center;verticalAlign=middle;resizable=0;points=[];autosize=1;strokeColor=none;fillColor=none;fontStyle=1;fontSize=19;" vertex="1" parent="oMtxJ8uxIb694PyAZF1U-1">
          <mxGeometry x="50" y="50" width="90" height="40" as="geometry" />
        </mxCell>
        <mxCell id="oMtxJ8uxIb694PyAZF1U-7" value="(JS Engine)" style="text;html=1;align=center;verticalAlign=middle;resizable=0;points=[];autosize=1;strokeColor=none;fillColor=none;" vertex="1" parent="oMtxJ8uxIb694PyAZF1U-1">
          <mxGeometry x="50" y="80" width="90" height="30" as="geometry" />
        </mxCell>
        <mxCell id="oMtxJ8uxIb694PyAZF1U-3" value="" style="swimlane;startSize=0;" vertex="1" parent="1">
          <mxGeometry x="510" y="110" width="190" height="140" as="geometry" />
        </mxCell>
        <mxCell id="oMtxJ8uxIb694PyAZF1U-4" value="Web Server" style="text;html=1;align=center;verticalAlign=middle;resizable=0;points=[];autosize=1;strokeColor=none;fillColor=none;fontStyle=1;fontSize=19;" vertex="1" parent="oMtxJ8uxIb694PyAZF1U-3">
          <mxGeometry x="35" y="50" width="120" height="40" as="geometry" />
        </mxCell>
        <mxCell id="oMtxJ8uxIb694PyAZF1U-5" value="" style="endArrow=classic;html=1;rounded=0;" edge="1" parent="1">
          <mxGeometry width="50" height="50" relative="1" as="geometry">
            <mxPoint x="350" y="161" as="sourcePoint" />
            <mxPoint x="510" y="160" as="targetPoint" />
          </mxGeometry>
        </mxCell>
        <mxCell id="oMtxJ8uxIb694PyAZF1U-6" value="" style="endArrow=classic;html=1;rounded=0;entryX=1;entryY=0.643;entryDx=0;entryDy=0;entryPerimeter=0;" edge="1" parent="1" target="oMtxJ8uxIb694PyAZF1U-1">
          <mxGeometry width="50" height="50" relative="1" as="geometry">
            <mxPoint x="510" y="200" as="sourcePoint" />
            <mxPoint x="510" y="190" as="targetPoint" />
          </mxGeometry>
        </mxCell>
        <mxCell id="oMtxJ8uxIb694PyAZF1U-8" value="Empty HTML + JS Bundle" style="text;html=1;align=center;verticalAlign=middle;resizable=0;points=[];autosize=1;strokeColor=none;fillColor=none;" vertex="1" parent="1">
          <mxGeometry x="350" y="200" width="160" height="30" as="geometry" />
        </mxCell>
        <mxCell id="oMtxJ8uxIb694PyAZF1U-9" value="Request to Target" style="text;html=1;align=center;verticalAlign=middle;resizable=0;points=[];autosize=1;strokeColor=none;fillColor=none;" vertex="1" parent="1">
          <mxGeometry x="365" y="138" width="120" height="30" as="geometry" />
        </mxCell>
        <mxCell id="oMtxJ8uxIb694PyAZF1U-27" value="" style="swimlane;startSize=0;" vertex="1" parent="1">
          <mxGeometry x="160" y="280" width="190" height="140" as="geometry" />
        </mxCell>
        <mxCell id="oMtxJ8uxIb694PyAZF1U-28" value="API Server" style="text;html=1;align=center;verticalAlign=middle;resizable=0;points=[];autosize=1;strokeColor=none;fillColor=none;fontStyle=1;fontSize=19;" vertex="1" parent="oMtxJ8uxIb694PyAZF1U-27">
          <mxGeometry x="35" y="50" width="120" height="40" as="geometry" />
        </mxCell>
        <mxCell id="oMtxJ8uxIb694PyAZF1U-37" value="" style="swimlane;startSize=0;" vertex="1" parent="1">
          <mxGeometry x="160" y="580" width="190" height="140" as="geometry" />
        </mxCell>
        <mxCell id="oMtxJ8uxIb694PyAZF1U-38" value="Browser" style="text;html=1;align=center;verticalAlign=middle;resizable=0;points=[];autosize=1;strokeColor=none;fillColor=none;fontStyle=1;fontSize=19;" vertex="1" parent="oMtxJ8uxIb694PyAZF1U-37">
          <mxGeometry x="50" y="50" width="90" height="40" as="geometry" />
        </mxCell>
        <mxCell id="oMtxJ8uxIb694PyAZF1U-39" value="(JS Engine)" style="text;html=1;align=center;verticalAlign=middle;resizable=0;points=[];autosize=1;strokeColor=none;fillColor=none;" vertex="1" parent="oMtxJ8uxIb694PyAZF1U-37">
          <mxGeometry x="50" y="80" width="90" height="30" as="geometry" />
        </mxCell>
        <mxCell id="oMtxJ8uxIb694PyAZF1U-40" value="" style="swimlane;startSize=0;" vertex="1" parent="1">
          <mxGeometry x="510" y="580" width="190" height="140" as="geometry" />
        </mxCell>
        <mxCell id="oMtxJ8uxIb694PyAZF1U-41" value="Web Server" style="text;html=1;align=center;verticalAlign=middle;resizable=0;points=[];autosize=1;strokeColor=none;fillColor=none;fontStyle=1;fontSize=19;" vertex="1" parent="oMtxJ8uxIb694PyAZF1U-40">
          <mxGeometry x="35" y="50" width="120" height="40" as="geometry" />
        </mxCell>
        <mxCell id="oMtxJ8uxIb694PyAZF1U-53" value="Compile HTML,CSS,JS" style="text;html=1;align=center;verticalAlign=middle;resizable=0;points=[];autosize=1;strokeColor=none;fillColor=none;" vertex="1" parent="oMtxJ8uxIb694PyAZF1U-40">
          <mxGeometry x="20" y="80" width="150" height="30" as="geometry" />
        </mxCell>
        <mxCell id="oMtxJ8uxIb694PyAZF1U-42" value="" style="endArrow=classic;html=1;rounded=0;" edge="1" parent="1">
          <mxGeometry width="50" height="50" relative="1" as="geometry">
            <mxPoint x="350" y="631" as="sourcePoint" />
            <mxPoint x="510" y="630" as="targetPoint" />
          </mxGeometry>
        </mxCell>
        <mxCell id="oMtxJ8uxIb694PyAZF1U-43" value="" style="endArrow=classic;html=1;rounded=0;entryX=1;entryY=0.643;entryDx=0;entryDy=0;entryPerimeter=0;" edge="1" target="oMtxJ8uxIb694PyAZF1U-37" parent="1">
          <mxGeometry width="50" height="50" relative="1" as="geometry">
            <mxPoint x="510" y="670" as="sourcePoint" />
            <mxPoint x="510" y="660" as="targetPoint" />
          </mxGeometry>
        </mxCell>
        <mxCell id="oMtxJ8uxIb694PyAZF1U-45" value="Request to Target" style="text;html=1;align=center;verticalAlign=middle;resizable=0;points=[];autosize=1;strokeColor=none;fillColor=none;" vertex="1" parent="1">
          <mxGeometry x="365" y="608" width="120" height="30" as="geometry" />
        </mxCell>
        <mxCell id="oMtxJ8uxIb694PyAZF1U-46" value="" style="swimlane;startSize=0;" vertex="1" parent="1">
          <mxGeometry x="770" y="580" width="180" height="140" as="geometry" />
        </mxCell>
        <mxCell id="oMtxJ8uxIb694PyAZF1U-47" value="API Server" style="text;html=1;align=center;verticalAlign=middle;resizable=0;points=[];autosize=1;strokeColor=none;fillColor=none;fontStyle=1;fontSize=19;" vertex="1" parent="oMtxJ8uxIb694PyAZF1U-46">
          <mxGeometry x="35" y="50" width="120" height="40" as="geometry" />
        </mxCell>
        <mxCell id="oMtxJ8uxIb694PyAZF1U-50" value="" style="endArrow=classic;startArrow=classic;html=1;rounded=0;exitX=1.016;exitY=0.564;exitDx=0;exitDy=0;exitPerimeter=0;entryX=-0.05;entryY=0.557;entryDx=0;entryDy=0;entryPerimeter=0;" edge="1" parent="1" source="oMtxJ8uxIb694PyAZF1U-40" target="oMtxJ8uxIb694PyAZF1U-46">
          <mxGeometry width="50" height="50" relative="1" as="geometry">
            <mxPoint x="720" y="660" as="sourcePoint" />
            <mxPoint x="760" y="660" as="targetPoint" />
          </mxGeometry>
        </mxCell>
        <mxCell id="oMtxJ8uxIb694PyAZF1U-51" value="" style="endArrow=classic;startArrow=classic;html=1;rounded=0;exitX=0.5;exitY=1;exitDx=0;exitDy=0;entryX=0.5;entryY=0;entryDx=0;entryDy=0;" edge="1" parent="1" source="oMtxJ8uxIb694PyAZF1U-1" target="oMtxJ8uxIb694PyAZF1U-27">
          <mxGeometry width="50" height="50" relative="1" as="geometry">
            <mxPoint x="550" y="420" as="sourcePoint" />
            <mxPoint x="570" y="400" as="targetPoint" />
          </mxGeometry>
        </mxCell>
        <mxCell id="oMtxJ8uxIb694PyAZF1U-52" value="Full HTML" style="text;html=1;align=center;verticalAlign=middle;resizable=0;points=[];autosize=1;strokeColor=none;fillColor=none;" vertex="1" parent="1">
          <mxGeometry x="385" y="670" width="80" height="30" as="geometry" />
        </mxCell>
      </root>
    </mxGraphModel>
  </diagram>
</mxfile>
